<?xml version="1.0" encoding="UTF-8" standalone="no"?>
<!-- Created with Inkscape (http://www.inkscape.org/) -->

<svg
   version="1.1"
   id="svg2"
   width="968"
   height="696"
   viewBox="0 0 968 696"
   sodipodi:docname="kerr_surfaces.svg"
   xml:space="preserve"
   inkscape:version="1.2.2 (b0a8486541, 2022-12-01)"
   xmlns:inkscape="http://www.inkscape.org/namespaces/inkscape"
   xmlns:sodipodi="http://sodipodi.sourceforge.net/DTD/sodipodi-0.dtd"
   xmlns="http://www.w3.org/2000/svg"
   xmlns:svg="http://www.w3.org/2000/svg"><defs
     id="defs6"><marker
       style="overflow:visible"
       id="Dot"
       refX="0"
       refY="0"
       orient="auto"
       inkscape:stockid="Dot"
       markerWidth="5.6666665"
       markerHeight="5.6666665"
       viewBox="0 0 5.6666667 5.6666667"
       inkscape:isstock="true"
       inkscape:collect="always"
       preserveAspectRatio="xMidYMid"><path
         transform="scale(0.5)"
         style="fill:context-stroke;fill-rule:evenodd;stroke:context-stroke;stroke-width:1pt"
         d="M 5,0 C 5,2.76 2.76,5 0,5 -2.76,5 -5,2.76 -5,0 c 0,-2.76 2.3,-5 5,-5 2.76,0 5,2.24 5,5 z"
         id="Dot1"
         sodipodi:nodetypes="sssss" /></marker><inkscape:path-effect
       effect="mirror_symmetry"
       start_point="663.86625,234.46104"
       end_point="663.86625,348.07538"
       center_point="663.86625,291.26821"
       id="path-effect2569"
       is_visible="true"
       lpeversion="1.2"
       lpesatellites=""
       mode="horizontal"
       discard_orig_path="false"
       fuse_paths="false"
       oposite_fuse="false"
       split_items="false"
       split_open="false"
       link_styles="false" /><inkscape:path-effect
       effect="mirror_symmetry"
       start_point="484.25123,234.46104"
       end_point="484.25123,348.07538"
       center_point="484.25123,291.26821"
       id="path-effect2567"
       is_visible="true"
       lpeversion="1.2"
       lpesatellites=""
       mode="vertical"
       discard_orig_path="false"
       fuse_paths="false"
       oposite_fuse="false"
       split_items="false"
       split_open="false"
       link_styles="false" /><inkscape:path-effect
       effect="mirror_symmetry"
       start_point="661.16434,234.52307"
       end_point="661.16434,348.04075"
       center_point="661.16434,291.28191"
       id="path-effect2563"
       is_visible="true"
       lpeversion="1.2"
       lpesatellites=""
       mode="Y"
       discard_orig_path="false"
       fuse_paths="false"
       oposite_fuse="false"
       split_items="false"
       split_open="false"
       link_styles="false" /></defs><sodipodi:namedview
     id="namedview4"
     pagecolor="#ffffff"
     bordercolor="#111111"
     borderopacity="1"
     inkscape:showpageshadow="0"
     inkscape:pageopacity="0"
     inkscape:pagecheckerboard="1"
     inkscape:deskcolor="#d1d1d1"
     showgrid="false"
     inkscape:zoom="0.86762815"
     inkscape:cx="465.06098"
     inkscape:cy="183.25823"
     inkscape:window-width="1920"
     inkscape:window-height="1007"
     inkscape:window-x="1920"
     inkscape:window-y="0"
     inkscape:window-maximized="1"
     inkscape:current-layer="g8" /><g
     inkscape:groupmode="layer"
     inkscape:label="Image"
     id="g8"><path
       id="path1016"
       style="display:inline;fill:#d1e7cf;fill-opacity:1;stroke:#d1e7cf;stroke-width:7.47478;stroke-opacity:1"
       d="m 905.82239,348 c 0,79.97176 -37.74876,165.59223 -116.85582,222.1408 C 709.85953,626.68937 595.87425,649.53388 484,649.53388 372.12575,649.53388 260.10081,627.8044 180.99377,571.25582 101.88673,514.70725 62.177605,427.97176 62.177605,348 c 0,-79.97176 43.446415,-169.07922 122.553465,-225.62778 C 263.83812,65.823645 372.12575,46.466116 484,46.466117 c 111.87425,0 225.7636,21.442673 304.87064,77.991243 C 867.97768,181.00594 905.82239,268.02824 905.82239,348 Z"
       sodipodi:nodetypes="sssssssss" /><ellipse
       style="display:inline;fill:#86bcb2;fill-opacity:1;stroke:#86bcb2;stroke-width:4.9645;stroke-opacity:1"
       id="path1068"
       cx="484"
       cy="348"
       rx="358.54752"
       ry="302.76328" /><ellipse
       style="display:inline;fill:#5692a0;stroke:#5692a0;stroke-width:4.55867;fill-opacity:1;stroke-opacity:1"
       id="path1070"
       cx="482"
       cy="348"
       rx="215.37114"
       ry="114.40612" /><path
       style="display:inline;fill:#2a886e;fill-opacity:1;stroke:#2a886e;stroke-width:1px;stroke-linecap:butt;stroke-linejoin:miter;stroke-opacity:1"
       d="m 304.13375,348.07538 c 0,0 12.89646,-5.56702 18.78685,-9.33579 10.3811,-6.64199 19.52481,-15.06781 28.81419,-23.16661 13.00454,-11.3378 24.38782,-24.47841 37.62724,-35.54103 10.15851,-8.48827 20.62965,-16.73089 31.96721,-23.56506 10.53362,-6.34956 21.57012,-12.12383 33.22953,-16.03946 9.57006,-3.21396 29.69246,-5.96639 29.69246,-5.96639 V 348.075 Z m 359.7325,0 c 0,0 -12.89646,-5.56702 -18.78685,-9.33579 -10.3811,-6.64199 -19.52481,-15.06781 -28.81419,-23.16661 -13.00454,-11.3378 -24.38782,-24.47841 -37.62724,-35.54103 -10.15851,-8.48827 -20.62965,-16.73089 -31.96721,-23.56506 -10.53362,-6.34956 -21.57012,-12.12383 -33.22953,-16.03946 -9.57006,-3.21396 -29.69246,-5.96639 -29.69246,-5.96639 V 348.075 Z m -359.7325,-0.15076 c 0,0 12.89646,5.56702 18.78685,9.33579 10.3811,6.64199 19.52481,15.06781 28.81419,23.16661 13.00454,11.3378 24.38782,24.47841 37.62724,35.54103 10.15851,8.48827 20.62965,16.73089 31.96721,23.56506 10.53362,6.34956 21.57012,12.12383 33.22953,16.03946 9.57006,3.21396 29.69246,5.96639 29.69246,5.96639 V 347.925 Z m 359.7325,0 c 0,0 -12.89646,5.56702 -18.78685,9.33579 -10.3811,6.64199 -19.52481,15.06781 -28.81419,23.16661 -13.00454,11.3378 -24.38782,24.47841 -37.62724,35.54103 -10.15851,8.48827 -20.62965,16.73089 -31.96721,23.56506 -10.53362,6.34956 -21.57012,12.12383 -33.22953,16.03946 -9.57006,3.21396 -29.69246,5.96639 -29.69246,5.96639 V 347.925 Z"
       id="path2565"
       sodipodi:nodetypes="caaaaaccc"
       inkscape:path-effect="#path-effect2567;#path-effect2569"
       inkscape:original-d="m 304.13375,348.07538 c 0,0 12.89646,-5.56702 18.78685,-9.33579 10.3811,-6.64199 19.52481,-15.06781 28.81419,-23.16661 13.00454,-11.3378 24.38782,-24.47841 37.62724,-35.54103 10.15851,-8.48827 20.62965,-16.73089 31.96721,-23.56506 10.53362,-6.34956 21.57012,-12.12383 33.22953,-16.03946 9.57006,-3.21396 29.69246,-5.96639 29.69246,-5.96639 V 348.075 Z"
       class="UnoptimicedTransforms" /><path
       style="fill:none;stroke:#000000;stroke-width:3.88939;stroke-linecap:butt;stroke-linejoin:miter;stroke-dasharray:none;stroke-opacity:1;marker-start:url(#Dot);marker-end:url(#Dot)"
       d="M 313.91127,348.00509 H 654.1573"
       id="path415" /><text
       xml:space="preserve"
       style="font-style:normal;font-weight:normal;font-size:40px;line-height:1.25;font-family:sans-serif;fill:#000000;fill-opacity:1;stroke:none"
       x="-56.772827"
       y="346.48172"
       id="text918"><tspan
         sodipodi:role="line"
         id="tspan916"
         x="-56.772827"
         y="346.48172">$r_{K+}$</tspan></text><text
       xml:space="preserve"
       style="font-style:normal;font-weight:normal;font-size:40px;line-height:1.25;font-family:sans-serif;fill:#000000;fill-opacity:1;stroke:none"
       x="67.450287"
       y="346.63766"
       id="text918-3"><tspan
         sodipodi:role="line"
         id="tspan916-6"
         x="67.450287"
         y="346.63766">$r_{H+}$</tspan></text><text
       xml:space="preserve"
       style="font-style:normal;font-weight:normal;font-size:40px;line-height:1.25;font-family:sans-serif;fill:#000000;fill-opacity:1;stroke:none"
       x="208.71255"
       y="347.62253"
       id="text918-3-3"><tspan
         sodipodi:role="line"
         id="tspan916-6-5"
         x="208.71255"
         y="347.62253">$r_{H-}$</tspan></text><text
       xml:space="preserve"
       style="font-style:normal;font-weight:normal;font-size:40px;line-height:1.25;font-family:sans-serif;fill:#000000;fill-opacity:1;stroke:none"
       x="325.30325"
       y="288.50174"
       id="text918-3-3-6"><tspan
         sodipodi:role="line"
         id="tspan916-6-5-2"
         x="325.30325"
         y="288.50174">$r_{K-}$</tspan></text><text
       xml:space="preserve"
       style="font-style:normal;font-weight:normal;font-size:40px;line-height:1.25;font-family:sans-serif;fill:#000000;fill-opacity:1;stroke:none"
       x="441.85995"
       y="341.71555"
       id="text1218"><tspan
         sodipodi:role="line"
         id="tspan1216"
         x="441.85995"
         y="341.71555">$r=0$</tspan></text></g></svg>
